<?xml version="1.0" ?><!DOCTYPE svg  PUBLIC '-//W3C//DTD SVG 1.0//EN'  'http://www.w3.org/TR/2001/REC-SVG-20010904/DTD/svg10.dtd'><svg height="110px" style="enable-background:new 0 0 110 110;" version="1.0" viewBox="0 0 110 110" width="110px" xml:space="preserve" xmlns="http://www.w3.org/2000/svg" xmlns:xlink="http://www.w3.org/1999/xlink"><g id="Artboard"/><g id="Multicolor"><g><circle cx="55" cy="55" r="55" style="fill:#FABC3D;"/></g><g><path d="M83,76c-0.615-1.333-1.698-2.394-3.043-2.982L65,69v-5.001l-3.243,3.241    c-1.125,1.125-2.651,1.757-4.242,1.757H55h-2.516c-1.591,0-3.116-0.632-4.242-1.757L45,63.999V69l-14.957,4.018    C28.698,73.606,27.615,74.667,27,76l-4,11h32h32L83,76z" style="fill:#0C7367;"/><path d="M65.143,69.039L65,69v-5.001l-3.243,3.241c-1.125,1.125-2.651,1.757-4.242,1.757H55h-2.516    c-1.591,0-3.116-0.632-4.242-1.757L45,63.999V69l-0.143,0.039c1.786,1.178,4.719,2.018,8.143,2.259V80h4v-8.703    C60.424,71.056,63.357,70.217,65.143,69.039z" style="fill:#099686;"/><path d="M68.831,41.482C67.781,39.744,61.441,39.044,55,39c-6.441,0.044-12.781,0.744-13.831,2.482    C41.04,42.882,41.003,44.392,41,46v7v5.343c0,1.061,0.422,2.079,1.172,2.829l6.071,6.069c1.125,1.125,2.651,1.757,4.242,1.757H55    h2.516c1.591,0,3.116-0.632,4.242-1.757l6.071-6.069c0.75-0.75,1.172-1.768,1.172-2.829V53v-7    C68.997,44.392,68.96,42.882,68.831,41.482z" style="fill:#FBC8C8;"/><path d="M41.169,41.482C41.04,42.882,41.003,44.392,41,46v7v5.343c0,1.061,0.422,2.079,1.172,2.829    l6.071,6.068c1.125,1.125,2.651,1.757,4.242,1.757H55V39C48.559,39.044,42.219,39.744,41.169,41.482z" style="fill:#FBD7D7;"/><g><path d="M51,58h8c0,0,0,3-4,3S51,58,51,58z" style="fill:#F79392;"/></g><g><g><path d="M76,87l-1.633-16.039c-2.884-0.812-5.686-1.455-7.082-1.763L62.367,80H47.734l-4.918-10.802      c-1.396,0.308-4.197,0.951-7.082,1.763L33.367,87H76z" style="fill:#3E3E3F;"/></g><g><polygon points="68.082,87 66.367,84 43.734,84 42.02,87     " style="fill:#5B5C5F;"/></g><g><path d="M34.101,69.18l0.074,0.978c0.062,0.818,0.455,1.574,1.089,2.094s1.453,0.758,2.267,0.658      l3.703-0.453c0.879-0.107,1.666-0.598,2.149-1.34s0.615-1.66,0.358-2.507l-0.262-0.867L34.101,69.18z" style="fill:#5B5C5F;"/></g><g><path d="M76,69.18l-0.074,0.978c-0.062,0.818-0.455,1.574-1.089,2.094s-1.453,0.758-2.267,0.658      l-3.703-0.453c-0.879-0.107-1.666-0.598-2.149-1.34c-0.484-0.742-0.615-1.66-0.358-2.507l0.262-0.867L76,69.18z" style="fill:#5B5C5F;"/></g></g><g><rect height="10" style="fill:#FACB1B;" width="10" x="69" y="75"/></g><g><polygon points="70,81 74,77 78,81 78,83 74,79 70,83    " style="fill:#3E3E3F;"/></g><path d="M68.879,51.121C68.316,51.684,68,52.447,68,53.243V58l-4.444,4H55h-8.556L42,58v-4.757    c0-0.796-0.316-1.559-0.879-2.121L39,49v8.68c0,0.841,0.353,1.643,0.973,2.212l10.167,9.32C50.693,69.719,51.417,70,52.167,70H55    h2.833c0.75,0,1.474-0.281,2.027-0.789l10.167-9.32C70.647,59.323,71,58.521,71,57.68V49L68.879,51.121z M58,67h-3h-3l-2.222-2H55    h5.222L58,67z" style="fill:#3E3E3F;"/><path d="M75,50c-1-7-1-10-3-11c0-11-9-16-17-16s-17,5-17,16c-2,1-2,4-3,11c-0.447,3.13,6,3,6,3    c0-4,0-10,0-11c0-2.122,6.95-2.952,14-3c7.05,0.048,14,0.878,14,3c0,1,0,7,0,11C69,53,75.447,53.13,75,50z" style="fill:#0C7367;"/><g><path d="M55,23c-8,0-17,5-17,16c-2,1-2,4-3,11c-0.447,3.13,6,3,6,3c0-4,0-10,0-11c0-2.122,6.95-2.952,14-3     V23z" style="fill:#099686;"/></g><g><path d="M55,35c-8.4,0-14,3-14,8c1.867-2,9.333-4,14-4s12.133,2,14,4C69,38,63.4,35,55,35z" style="fill:#12B2A0;"/></g><path d="M70.541,42.929c-0.231-0.28-1.166-1.265-3.462-2.184C64.185,39.587,60.336,39,55.64,39    c-0.218,0-0.438,0.001-0.664,0.004C54.799,39.001,54.577,39,54.36,39c-11.089,0-14.358,3.273-14.901,3.929l-0.476,0.576L39,44.252    c0.203,8.503,2.07,9.41,2.772,9.751c1.86,0.904,6.99,1.001,9.109,1.001c1.972,0,2.854-1.751,3.382-2.798    c0.192-0.381,0.55-1.091,0.754-1.215c0.167,0.124,0.524,0.833,0.717,1.215c0.528,1.046,1.411,2.798,3.382,2.798    c2.119,0,7.25-0.098,9.109-1.001c0.703-0.341,2.569-1.249,2.772-9.751l0.018-0.748L70.541,42.929z" style="fill:#3E3E3F;"/><path d="M55,41.007c-11.243-0.13-13.897,3.193-14,3.2c0,2.4,0.174,7.285,1.647,8.001    c0.105,0.051,0.232,0.099,0.375,0.144c9.223-5.683,15.052-9.372,17.705-11.065C59.124,41.093,57.234,40.982,55,41.007z" style="fill:#5B5C5F;"/></g></g></svg>